<svg xmlns="http://www.w3.org/2000/svg" viewBox="0 0 527.36 267.54">
  <defs>
    <style>
      .aa6a04dc-05be-43bd-a07b-aa8f9af6207c {
        fill: none;
        stroke: #ccc3a5;
        stroke-linecap: round;
        stroke-miterlimit: 10;
        stroke-width: 2.55px;
      }

      .b9344c56-dde7-48cc-bd26-6c8161a53300 {
        fill: #6b8240;
      }
    </style>
  </defs>
  <g id="e51a2c44-e04e-4347-862b-3263ff81f3c3" data-name="Lag 2">
    <g id="f2635c9a-462b-4f3f-b963-2d4ded77f150" data-name="caprifolium">
      <g id="ae988c4f-0fc1-49eb-b960-c7432a002f71" data-name="caprifolium">
        <path class="aa6a04dc-05be-43bd-a07b-aa8f9af6207c" d="M1.28,266.26c16.68-11.55,27.54-5.53,35.62-4,6.32,1.17,9.71,2.95,17.49,3.24,7.32.27,14.51-.94,25.1-4.68,21.27-7.52,20.57-11.95,34.54-16.83,14.84-5.19,29.47-12.64,41.34-1.21,7.17,7.11,17,11.27,31.77,3.17,10.58-5.81,17.28-13.81,18-15,4.9-8.59,7.54-12.63,4.43-32-3.29-20.44.3-22.79,6.15-29.73,6.26-16.9-1.26-19.84,2.62-27.76,4.13-8.45,9.18-9,14.3-20.86,3.8-8.78,3-13,2.44-14.74-1.55-5.31-5.27-6.16-7.12-10.36-3.9-8.84,5.46-21,7.32-23.45,16.14-21,50.69-22,64.66-22.44,28.68-.84,41.48,6.95,61.34,1.55a52.5,52.5,0,0,1,19.07-2.25c9.63.74,12.54,3.91,20.47,5.28,11.53,2,16.27-2.85,30.13-5.62,12.49-2.5,21.85-1.15,40.55,1.53,19.21,2.76,28.9,7,44.79,3.35a64.51,64.51,0,0,0,9.81-3.13"/>
        <path class="aa6a04dc-05be-43bd-a07b-aa8f9af6207c" d="M521.25,55.69A91.19,91.19,0,0,0,494,49.07c-18.6-1.53-22.6,4.12-43.39,4.19-20.6.07-21.89-5.46-41-4-17.11,1.27-17.43,5.79-31.39,5.85-19.84.1-22.33-9-40.93-10.55C315.42,42.69,314.46,55,287.56,56.38c-23.17,1.23-30-7.46-45.58-.6-10.06,4.42-20.45,13.86-19.32,21.78.81,5.68,6.88,5.91,9.08,13.9,1.88,6.8-1.76,9.43-.49,18.28.89,6.13,3.1,8.11,5.09,13.34,3.7,9.75,4.64,17.93.12,28.55-4.89,11.51-7.4,30,1.68,43.86,8.68,25.66,1.92,45.1-7.51,57.25-5.11,7.45-13.38,6.46-17.81,2-3.78-3.78-3.69-12.07,1-15.76,3.64-2.9,8.5-1.71,8.79-1.64a10.83,10.83,0,0,1,6,4.09"/>
        <path class="b9344c56-dde7-48cc-bd26-6c8161a53300" d="M211.12,155.06c2.28-1.73,2.74-1.35,4.56-3.45a12.43,12.43,0,0,0,2-3c.46-1,1.35-3,.55-4s-2.75-.71-2.74-.79,2.92.5,3.76-.7c.57-.79-.09-3.06-.46-2.51-.59.88-2,2.24-2.28,1.72-.09-.18,1.84-2.42,2.83-5.72a8.35,8.35,0,0,0,.32-5.25c-.67-2-1.72-2.28-4.7-4.32a13.1,13.1,0,0,0-4.79,2.19s-.47-2.51-2-3.53a10.85,10.85,0,0,0-.55,4c.13,2.55,1.18,4.55,2.66,7.29,1.22,2.29,2.12,3.41,2,3.54s-1.88-1.32-3.22-3.3-.9-2.29-1.95-3.53-1.56-1-4.47-3.07c-2-1.42-2.09-1.76-3-2a6.5,6.5,0,0,0-5,.93c.7,3.77,3.84,8,4.15,8.32,1.71,1.73,5.22,5.29,10.19,5.9,1,.12,2.62.2,2.74.79.16.76-2.48,1.15-3.3,3.21-.74,1.88.46,4.12.94,5A9,9,0,0,0,211.12,155.06Z"/>
        <path class="b9344c56-dde7-48cc-bd26-6c8161a53300" d="M235.74,92c-.31.3-1.12-.06-2.74-.78-2.17-1-3.25-1.45-3.72-2.56s.11-2.1-.47-2.51-1.12.29-2.51.47c-1,.13-1.48-.1-4.75-1.06-2.74-.81-2.44-.66-2.74-.79-2.16-.93-2.46-2.06-5.45-4.83-2.43-2.25-2.47-2.79-3.21-3.3.14-1.69,3.84-2.67,5.3-2.94a6,6,0,0,1,3.25.05c1.44.5,1.51,1.36,3,2,1.65.76,2.26,0,4,.55,2.83.82,3.72,2.56,4.47,3.07-1-1.77-.08-4.14,1.11-8C232.91,66,239.62,64,241.39,63A11.53,11.53,0,0,1,243,71.82a14.93,14.93,0,0,1-1.57,5.49,16.5,16.5,0,0,1-8.36,7.4c-1.37.5-3.07.85-3,1.22s1.35.2,2.75.78C235.23,87.72,235.74,92,235.74,92Z"/>
        <path class="b9344c56-dde7-48cc-bd26-6c8161a53300" d="M250.43,80.18A12.69,12.69,0,0,1,244,73.59c-.41-1-2-5.12-.15-7.77.81-1.16,2.35-2.15,2.05-3-.08-.21-.46-.9-1-1h-.08a6.44,6.44,0,0,0-1.64.18c-1.2.33-3.86,1.78-6,2.43a15.08,15.08,0,0,1-2.51.47c-4,.5-6.28,1.17-9.26-.87-9.06,4.09-15.21-5-15.68-7.47,2-3,5.58-4.94,9.81-3.13,2.51-.47,6-2.43,7.53-1.41a22.67,22.67,0,0,1,14.19,6.45,3.79,3.79,0,0,1,2.75.79c1.19.79,1.9,2.11,1.72,2.28-.35.32-5.2-2.94-7.91-7.62-3.69-6.38-3.49-15.54-.53-16.79,2.39-1,7.68,2.68,9.17,7.38,1.86,5.9-2.85,11.44.29,15.54.29.37.87,1.1,1.49,1-.47-2.51.73-5.41,3.15-11s5.46-5,7.15-10.43c1.29-4.12.56-4,2.36-8.23.79-2.75,6.05-2.43,5.26.32-.32,5.25-4.72,16.47-10.3,21.4-2.26,3-5.57,4.94-6.13,8.94.21.18,1.35-1.51,3.53-2a7.13,7.13,0,0,1,5.49,1.58,7.48,7.48,0,0,1,2.43,6c-2.38-.6-6.25-3.36-10-4.64,1.29.46,7,2.6,7.92,7.62a14.5,14.5,0,0,1-1.9,10.74A14.18,14.18,0,0,1,250.43,80.18Z"/>
        <path class="b9344c56-dde7-48cc-bd26-6c8161a53300" d="M368.29,12.1c-1-1.79-7-.54-10.28.62-3,1-3.15,1.75-6,2.42-3.24.76-4.08.12-6.28,1.17-2,1-1.95,1.81-4.55,3.45s-2.93,1-4.79,2.19c-3.87,2.42-5.43,6.93-6.13,8.94-1.05,3-1.17,5.52-1.57,5.49s-.48-1.38-.47-2.51a12.44,12.44,0,0,1,1.57-5.49,16.46,16.46,0,0,0,.88-9.26c-.35-2-1.05-6.22-4.15-8.32-1.48-1-3-1.18-4.47-3.06-1-1.3-1.72-2.28-1.72-2.28s-2.35,3.24-2.83,5.72a21.87,21.87,0,0,0-.09,6.52c.45,4.89.67,7.34,1.64,8.78,2,3,4.77,2.86,6.42,6.6.39.87.85,2.26.47,2.51s-1.25-.83-3-2a29.42,29.42,0,0,0-5.72-2.83c-3.48-1.49-3.47-1.16-4.24-1.81-1.27-1.1-1.83-4-3.44-4.56-.85-.28-.75-.51-2-.27-.47-2.51-2.19-4.79-3.92-7.07-.38-.54-1-1.34-1.72-2.27a20.23,20.23,0,0,0-3.33-3.54,15.56,15.56,0,0,0-2.86-1.8l-1.58,5.49c-1.22,5.09-2.27,6.19-2.12,9.48a9.89,9.89,0,0,0,.7,3.77c.85,2,1.83,2.16,1.95,3.53a4.71,4.71,0,0,1-3.06,4.47,3.55,3.55,0,0,1-1.25.24c-1.94,0-2.81-1.86-4.47-3.07-2.46-1.79-5.57-1.46-6.75-1.34-3.14.33-3.17,1.8-7.3,2.66-2.73.57-4.95.39-5,.94s1.15.88,1.49,1c5.26,2.12,6.39,6.85,11.92,8.17,5.17,1.24,7.62-.72,13.25,1.42,2.09.8,4.17,2,6.75,1.35,1.5-.38,3.09-1.35,3.76-.71,1.49,1,.28,1,.24,1.26a2.75,2.75,0,0,0-2.05,3c-1.1,1.61-.65,3.7-.31,5.25.27,1.3,2.19,4.79,3.68,5.81,2.51-.47,4.34-1.17,5.29-2.93a6.7,6.7,0,0,0,.56-4c-.22-1.44-.75-.51-.47-2.51.51-.75,1.77.47,4,.55s2.89-.77,5-.94c3.23-.25,3.51,1.23,6,.83,1.16-.18,2.71-1.35,5.81-3.68,3.3-3.21,3.75-3.06,3.81-4,.2-3.13-1.07-3.91-.7-3.76a17.65,17.65,0,0,1,4.93,5.57c1.21,2,1.7,3.46,3.45,4.56.72.45,2,.27,2.75.78,2-.88,2.48-7.54-.86-11.53a10.87,10.87,0,0,0-8.46-3.62,24.77,24.77,0,0,0-6.28,1.17c-.6.21-1.1.43-1.26.24-.38-.47,1.54-3.33,4.32-4.7,1.74-.86,2.84-.66,5-.94,1.23-.16,2.31-.41,8.55-2.89,6.52-2.6,9.78-3.9,10.83-4.62a30.33,30.33,0,0,0,7.62-7.91C367.61,14.91,368.9,13.16,368.29,12.1ZM321.86,38.29l-.3-.36a12.75,12.75,0,0,0-4.72,1.3.17.17,0,0,1-.12,0s-.15-.06-.12-1.27a25.68,25.68,0,0,0-4-.55,3,3,0,0,1-.76-.07c-.74-.2-1.07-.72-2-.72-1.92,0-2.51.47-3.53,2-.36-.21.08-1.15.55-4,.29-1.77,1-1.49.79-2.75.37-.11.79.31,1.49,1,3,3.12,2.85,3.09,3.21,3.29,2.08,1.16,5.1.37,5.25.32a3.87,3.87,0,0,1,1.26-.23,4.44,4.44,0,0,1,2.68,1.68C321.84,38,322,38.08,321.86,38.29Z"/>
        <path class="b9344c56-dde7-48cc-bd26-6c8161a53300" d="M419.82,55.11a29.23,29.23,0,0,0,2-3c1.26-2.14.66-3.24,1.81-4.24s2.93-.8,3.77-.7c3.41.43,5.48,3.07,5.72,2.83s-1.33-2.29-3.45-4.55c-2.83-3-4.74-4.29-5.17-6.83a4.36,4.36,0,0,0-.23-1.26c-.78-1.78-3.14-1.9-5.72-2.83-3.38-1.21-4.24-1.81-6-4.08a14.31,14.31,0,0,1,3.7-.39,14.51,14.51,0,0,1,5.55,1.26c-.67-3.58-.69-3.69-.7-3.77-.23-3.14,1.4-3.66,1.34-6.74,0-2.36-1.23-3.27-.7-3.77,2-1.8,10.9,1.53,11,3.15,1-1.49,4.32-4.7,6.83-5.17,1.49,1,3,2.05,3.21,3.3,2.54-1.19,6.48-7.09,7.62-7.91,3-2.17,3-5.76,3.85-7.22,1.09-1.86.79-2.74,3.3-3.21-.82,1.89-.92,4.45.38,9s1,4.81,1.64,8.79a31.73,31.73,0,0,1-2.13,9.49c1.49,1,1.49,1,3.22,3.3,3.29-3.22,7.61-3.54,14.83-4.07,4.86-.35,9.49,2.13,11.21,4.41-.79,2.74-2.85,5-6.36,7.68a31.41,31.41,0,0,1-15.62,6.81c-4,.46-10.67.32-13.77-.68a12.88,12.88,0,0,0-4-.56c-.32,0-2.44,0-2.51.47,1.77-1,5.13.69,8.47,3.62,4.8,4.21,4.11,11.57,2.57,13.81-1.61.56-5.29,2.93-9.17-7.39-3,1.22-3,1.22-6.27,1.17-1.3,3.49-6.6,4.75-9.58,4.39-2.76-.34-2.75-2.68-7.21-3.85C421.54,55.94,421.31,56.13,419.82,55.11Z"/>
        <path class="b9344c56-dde7-48cc-bd26-6c8161a53300" d="M238.14,195.49a7,7,0,0,1-3.76.7,8.28,8.28,0,0,1-5.49-1.58c0-.69,2.18-.83,2.27-1.72-.93,1.38-3-2-4.46-3.06.11-.19,5-.94,8,1.1.78-2.74,1.34-6.74,3.61-8.47C239.8,183.49,244,191.81,238.14,195.49Z"/>
        <path class="b9344c56-dde7-48cc-bd26-6c8161a53300" d="M241.48,227.34c.47,2.51,1,3,2.71,5,1.5,1.79,4,2.31,6.46,2.33.76-2,1.33-4.64.09-6.51-1.92-2.88-4.47-3.06-7.21-3.85,0-.36.47-.46,2.27-1.72.85-.6,1.8-1.31,2.28-1.73a10,10,0,0,0,3-5.07c.4-2.09-.11-4.29-1.31-6.93-3.53,2-4.31,3.13-4.55,3.45-2.77,3.63-3.3,3.21-3.86,7.21-.23-1.25-1-2.39-3.44-4.55-.3-.27-2.91-2.54-4.24-1.81-1,1.49-1.46,7.37,1.87,10,1.88,1.5,4.28,1.48,4.24,1.81-.06.52-5.76-1-10,1.87-1.88,1.27-2.28,1.73-3.07,4.47.48.94,2.73.7,4,.56a18.28,18.28,0,0,0,7.3-2.66C240.14,227.94,240.63,227.09,241.48,227.34Z"/>
      </g>
    </g>
  </g>
</svg>
