<svg xmlns="http://www.w3.org/2000/svg" viewBox="0 0 235.28 237.46">
  <defs>
    <style>
      .f790c39d-84f7-422e-8b1d-f10636dec9a4, .f87bbc2e-3ff9-4575-9930-9c0f59692b23 {
        fill: #fff;
        stroke: #fff;
        stroke-linejoin: bevel;
      }

      .f790c39d-84f7-422e-8b1d-f10636dec9a4 {
        stroke-width: 3px;
      }

      .b29347c4-fcd9-41fc-b855-268b0f29760e {
        fill: #f9bf1c;
      }

      .f87bbc2e-3ff9-4575-9930-9c0f59692b23 {
        stroke-width: 3.09px;
      }

      .a10973e5-d06f-459a-90bf-d8f3c317443b {
        fill: #565555;
      }
    </style>
  </defs>
  <g id="a909189c-2b3b-4f8e-8f3a-f1795faaf6f3" data-name="Lag 2">
    <g id="ae000ae2-15d0-4076-9d90-280f8df50204" data-name="Lag 2">
      <g>
        <polygon class="f790c39d-84f7-422e-8b1d-f10636dec9a4" points="144.64 4.48 110.54 1.49 90.02 235.96 124.39 235.96 144.64 4.48"/>
        <g>
          <path class="f790c39d-84f7-422e-8b1d-f10636dec9a4" d="M233.52,63.21,200.25,85.56,12.8,69.16,34.28,45.77Q25.73,32.41,17.19,19l187.44,16.4Z"/>
          <polygon class="b29347c4-fcd9-41fc-b855-268b0f29760e" points="127.8 65.96 120.36 61.23 112.24 64.67 114.45 56.13 108.67 49.48 117.47 48.93 122.01 41.38 125.25 49.58 133.84 51.56 127.03 57.18 127.8 65.96"/>
          <polygon class="b29347c4-fcd9-41fc-b855-268b0f29760e" points="95.68 63.15 88.24 58.42 80.13 61.86 82.33 53.32 76.55 46.66 85.35 46.12 89.89 38.57 93.13 46.77 101.72 48.76 94.92 54.37 95.68 63.15"/>
          <polygon class="b29347c4-fcd9-41fc-b855-268b0f29760e" points="159.92 68.77 152.48 64.04 144.36 67.48 146.57 58.94 140.78 52.28 149.58 51.74 154.13 44.19 157.36 52.39 165.95 54.38 159.15 59.99 159.92 68.77"/>
          <polygon class="b29347c4-fcd9-41fc-b855-268b0f29760e" points="192.03 71.58 184.6 66.85 176.48 70.29 178.68 61.75 172.9 55.09 181.7 54.55 186.25 47 189.48 55.2 198.07 57.19 191.27 62.8 192.03 71.58"/>
          <polygon class="b29347c4-fcd9-41fc-b855-268b0f29760e" points="63.57 60.34 56.13 55.61 48.01 59.05 50.21 50.51 44.43 43.85 53.23 43.31 57.77 35.76 61.01 43.96 69.6 45.95 62.8 51.56 63.57 60.34"/>
        </g>
        <g>
          <path class="f87bbc2e-3ff9-4575-9930-9c0f59692b23" d="M234.29,133.69l-34.06,23.76L1.15,149.08,22.69,124.8l-19.42-26,199.07,8.37Z"/>
          <g>
            <path class="a10973e5-d06f-459a-90bf-d8f3c317443b" d="M43.58,135.86l-3-7-2.08-.09-.29,6.88-3.12-.13L36,113.86l4.79.2a5.59,5.59,0,0,1,4.48,2.15,8.06,8.06,0,0,1,1.4,5.4,11.32,11.32,0,0,1-.77,3.73,5.89,5.89,0,0,1-2,2.67l3.34,8Zm-4.95-11.23,2.21.1a2,2,0,0,0,1.89-.94,4.26,4.26,0,0,0,.67-2.17,5.22,5.22,0,0,0-.4-2.27,1.89,1.89,0,0,0-1.86-1.15l-2.24-.09Z"/>
            <path class="a10973e5-d06f-459a-90bf-d8f3c317443b" d="M55.9,132.37l1.2,3.12a7.19,7.19,0,0,1-1.67.87,4.34,4.34,0,0,1-1.65.28,4.77,4.77,0,0,1-2.85-1,5.33,5.33,0,0,1-1.73-2.51,9.73,9.73,0,0,1-.47-3.63,8.32,8.32,0,0,1,.86-3.44,6.47,6.47,0,0,1,2.07-2.44,4.51,4.51,0,0,1,2.77-.81,4.09,4.09,0,0,1,3.25,1.76,9.16,9.16,0,0,1,1.49,4.69l-7,2.71A2.15,2.15,0,0,0,54,133.15,2.93,2.93,0,0,0,55.9,132.37Zm-3.49-5.48a4.7,4.7,0,0,0-.71,2.51v.26l4.2-1.74c-.25-1.22-.86-1.86-1.83-1.9A1.84,1.84,0,0,0,52.41,126.89Z"/>
            <path class="a10973e5-d06f-459a-90bf-d8f3c317443b" d="M71.2,124.15,65.32,137h-.09l-5.07-13.36,3.56.15L65.66,130l2.19-6Z"/>
            <path class="a10973e5-d06f-459a-90bf-d8f3c317443b" d="M73.54,118.19a1.48,1.48,0,0,1,1.18-.55,1.4,1.4,0,0,1,1.09.65,2.28,2.28,0,0,1,.43,1.5,2.17,2.17,0,0,1-.56,1.45,1.41,1.41,0,0,1-1.14.54,1.47,1.47,0,0,1-1.12-.63,2.17,2.17,0,0,1-.44-1.49A2.24,2.24,0,0,1,73.54,118.19Zm2.32,6.15-.55,12.85-3-.12.54-12.85Z"/>
            <path class="a10973e5-d06f-459a-90bf-d8f3c317443b" d="M91.77,125,87,138.45l-2.64-8.65-3.11,8.41-3.7-13.8,2.92.13,1.51,5.51,1.48-3.92L83,124.64l2.56.11,1.52,5.75,1.79-5.61Z"/>
            <path class="a10973e5-d06f-459a-90bf-d8f3c317443b" d="M100.12,128.1a5.82,5.82,0,0,1,2-2.37A4.61,4.61,0,0,1,105,125a4.46,4.46,0,0,1,2.72,1,5.78,5.78,0,0,1,1.73,2.53,9.23,9.23,0,0,1,.5,3.56,9.38,9.38,0,0,1-.8,3.53,5.66,5.66,0,0,1-1.94,2.41,4.58,4.58,0,0,1-2.84.78,4.76,4.76,0,0,1-2.74-1,5.35,5.35,0,0,1-1.79-2.47,9.24,9.24,0,0,1-.52-3.74A8.79,8.79,0,0,1,100.12,128.1Zm2.74,6.23a1.86,1.86,0,0,0,1.59,1.08,1.91,1.91,0,0,0,1.71-.93,5.46,5.46,0,0,0,.21-5.11,1.89,1.89,0,0,0-1.62-1.07,1.91,1.91,0,0,0-1.68.94,4.81,4.81,0,0,0-.75,2.52A4.69,4.69,0,0,0,102.86,134.33Z"/>
            <path class="a10973e5-d06f-459a-90bf-d8f3c317443b" d="M121.89,126.28l-.54,12.85-2.73-.11L118.5,137a4.83,4.83,0,0,1-1.47,1.9,3.29,3.29,0,0,1-2.13.63,2.67,2.67,0,0,1-2.1-1.18,4.45,4.45,0,0,1-.76-2.8l.4-9.62,3,.13-.34,8.09c0,1.25.39,1.9,1.19,1.93s1.2-.39,1.63-1.26a8.26,8.26,0,0,0,.73-3.38l.22-5.24Z"/>
            <path class="a10973e5-d06f-459a-90bf-d8f3c317443b" d="M128.83,127.66a6.24,6.24,0,0,1,1.44-1.22,2.42,2.42,0,0,1,1.14-.41l-.32,4.11a1.66,1.66,0,0,0-.37,0,2.22,2.22,0,0,0-1.61.58,4.25,4.25,0,0,0-1.13,1.61,6.2,6.2,0,0,0-.45,2.06l-.21,5-3-.12.54-12.86,2.7.12.11,3A6.61,6.61,0,0,1,128.83,127.66Z"/>
            <path class="a10973e5-d06f-459a-90bf-d8f3c317443b" d="M149.17,127.9a4.28,4.28,0,0,1,.8,2.8l-.41,9.62-3-.13.34-8.09c0-1.25-.42-1.9-1.3-1.94q-1,0-1.71,1.26a8.08,8.08,0,0,0-.76,3.38l-.22,5.24-3-.13,1-23.2,2.94.12-.52,12.38a4.68,4.68,0,0,1,1.51-1.88,3.43,3.43,0,0,1,2.19-.61A2.74,2.74,0,0,1,149.17,127.9Z"/>
            <path class="a10973e5-d06f-459a-90bf-d8f3c317443b" d="M152.92,130.32a5.82,5.82,0,0,1,2-2.37,4.61,4.61,0,0,1,2.84-.78,4.46,4.46,0,0,1,2.72,1,5.78,5.78,0,0,1,1.73,2.53,9.23,9.23,0,0,1,.5,3.56,9.38,9.38,0,0,1-.8,3.53,5.66,5.66,0,0,1-1.94,2.41,4.58,4.58,0,0,1-2.84.78,4.69,4.69,0,0,1-2.74-1,5.35,5.35,0,0,1-1.79-2.47,9.24,9.24,0,0,1-.52-3.74A8.79,8.79,0,0,1,152.92,130.32Zm2.74,6.23a1.86,1.86,0,0,0,1.59,1.08,1.93,1.93,0,0,0,1.71-.92,5.48,5.48,0,0,0,.21-5.12,1.89,1.89,0,0,0-1.62-1.07,1.91,1.91,0,0,0-1.68.94,4.81,4.81,0,0,0-.75,2.52A4.69,4.69,0,0,0,155.66,136.55Z"/>
            <path class="a10973e5-d06f-459a-90bf-d8f3c317443b" d="M174.69,128.5l-.54,12.85-2.73-.11-.12-2.07a4.83,4.83,0,0,1-1.47,1.9,3.29,3.29,0,0,1-2.13.63,2.65,2.65,0,0,1-2.1-1.18,4.45,4.45,0,0,1-.76-2.8l.4-9.62,3,.13-.34,8.09c0,1.25.38,1.9,1.19,1.93.65,0,1.2-.39,1.63-1.26a8.26,8.26,0,0,0,.73-3.38l.22-5.24Z"/>
            <path class="a10973e5-d06f-459a-90bf-d8f3c317443b" d="M178,141.22a4.66,4.66,0,0,1-1.61-1.63l1.34-2.21c.79,1.09,1.54,1.65,2.27,1.68a1.56,1.56,0,0,0,.95-.21.84.84,0,0,0,.38-.73,1,1,0,0,0-.37-.92,4.17,4.17,0,0,0-.89-.55l-.66-.29a3.77,3.77,0,0,1-1.76-1.65,4.7,4.7,0,0,1-.5-2.42,5.38,5.38,0,0,1,.48-2,3.76,3.76,0,0,1,1.3-1.57,3.32,3.32,0,0,1,2.11-.54,5.48,5.48,0,0,1,2,.4,4.81,4.81,0,0,1,1.53,1.13l-1.24,2.36a4.25,4.25,0,0,0-.93-.82,2,2,0,0,0-.94-.35,1.25,1.25,0,0,0-.85.26.94.94,0,0,0-.35.7,1,1,0,0,0,.34.94,5.22,5.22,0,0,0,1.21.68l.26.13.28.13a3.65,3.65,0,0,1,2.06,3.74,5.56,5.56,0,0,1-.54,2.25,3.9,3.9,0,0,1-1.44,1.6,3.74,3.74,0,0,1-2.25.54A4.36,4.36,0,0,1,178,141.22Z"/>
            <path class="a10973e5-d06f-459a-90bf-d8f3c317443b" d="M193.34,138.15l1.21,3.12a7.26,7.26,0,0,1-1.68.87,4.32,4.32,0,0,1-1.64.28,4.78,4.78,0,0,1-2.85-1,5.26,5.26,0,0,1-1.74-2.52,9.64,9.64,0,0,1-.47-3.62,8.14,8.14,0,0,1,.87-3.44,6.3,6.3,0,0,1,2.07-2.44,4.47,4.47,0,0,1,2.76-.81,4.07,4.07,0,0,1,3.25,1.76,9.13,9.13,0,0,1,1.49,4.69l-7,2.71a2.12,2.12,0,0,0,1.82,1.17A2.93,2.93,0,0,0,193.34,138.15Zm-3.49-5.48a4.7,4.7,0,0,0-.71,2.51v.26l4.21-1.74c-.25-1.23-.86-1.86-1.84-1.9A1.84,1.84,0,0,0,189.85,132.67Z"/>
          </g>
        </g>
      </g>
    </g>
  </g>
</svg>
